# Blender v2.76 (sub 0) OBJ File: '2v_engine.blend'
# www.blender.org
mtllib dual_thruster_engine2.mtl
o Cube_Cube.002
v 1.000000 0.000000 0.000000
v 1.000000 0.000000 1.000000
v 0.000000 -0.000000 1.000000
v 0.000000 0.000000 0.000000
v 0.000000 1.000000 1.000000
v 0.000000 1.000000 0.000000
v 0.875000 0.875000 1.000000
v 0.875000 0.875000 0.000000
vt 1.000000 1.000000
vt 0.000000 1.000000
vt 0.000000 0.000000
vt 1.000000 0.000000
vt 0.500000 0.500000
vn 0.000000 -1.000000 -0.000000
vn -1.000000 0.000000 0.000000
vn -0.000000 0.000000 1.000000
vn -0.000000 0.000000 -1.000000
vn 0.141400 0.989900 0.000000
vn 0.989900 0.141400 0.000000
usemtl Mat1
s off
f 1/1/1 2/2/1 3/3/1 4/4/1
f 4/3/2 3/4/2 5/1/2 6/2/2
f 2/1/3 7/5/3 5/3/3 3/4/3
f 1/1/4 4/2/4 6/3/4 8/5/4
usemtl Mat1_space_station_hull_slope.png
f 6/1/5 5/4/5 7/3/5 8/2/5
f 1/4/6 8/3/6 7/2/6 2/1/6
