# Blender v2.76 (sub 0) OBJ File: 'engine.blend'
# www.blender.org
mtllib engine.mtl
o Cube_Cube.002
v 1.000000 0.750000 0.000000
v 0.250000 0.750000 0.000000
v 1.000000 0.000000 0.000000
v 0.000000 0.000000 0.000000
v 0.000000 0.000000 0.000000
v 1.000000 0.000000 0.000000
v 1.000000 0.000000 1.000000
v 0.000000 0.000000 1.000000
v 1.000000 0.750000 0.750000
v 0.250000 0.750000 0.750000
vt 0.000000 0.000000
vt 1.000000 0.000000
vt 1.000000 1.000000
vt 0.000000 1.000000
vn -0.000000 -0.000000 -1.000000
vn 1.000000 -0.000000 0.000000
vn 0.000000 0.316200 0.948700
vn -0.948700 0.316200 0.000000
vn 0.000000 1.000000 0.000000
vn -0.000000 -1.000000 0.000000
usemtl side
s off
f 2/1/1 1/2/1 3/3/1 4/4/1
f 9/3/2 7/4/2 6/1/2 1/2/2
f 8/1/3 7/2/3 9/3/3 10/4/3
f 10/4/4 2/1/4 5/2/4 8/3/4
f 1/1/5 2/4/5 10/3/5 9/2/5
usemtl bottom
f 5/3/6 6/4/6 7/1/6 8/2/6
