# Blender v2.76 (sub 0) OBJ File: 'slope.blend'
# www.blender.org
mtllib ring_slope.mtl
o Slope
v -0.500000 0.500000 0.500000
v -0.500000 -0.500000 0.500000
v 0.500000 -0.500000 0.500000
v 0.500000 0.500000 0.500000
v 0.500000 -0.500000 -0.500000
v 0.500000 0.500000 -0.500000
vt 1.000000 1.000000
vt 0.000000 0.000000
vt 1.000000 0.000000
vt -0.000000 1.000000
vn -0.000000 -1.000000 0.000000
vn 0.000000 1.000000 0.000000
vn -0.000000 0.000000 1.000000
vn 1.000000 -0.000000 0.000000
vn -0.707100 0.000000 -0.707100
usemtl slope
s off
f 2/1/1 5/2/1 3/3/1
f 1/1/2 4/4/2 6/2/2
usemtl hull
f 1/1/3 2/4/3 3/2/3 4/3/3
f 4/2/4 3/3/4 5/1/4 6/4/4
f 2/1/5 1/4/5 6/2/5 5/3/5
